<?xml version="1.0" encoding="UTF-8"?>
<svg id="_图层_2" data-name="图层 2" xmlns="http://www.w3.org/2000/svg" viewBox="0 0 279.69 79.01">
  <defs>
    <style>
      .cls-1 {
        fill: #fff;
      }

      .cls-2 {
        fill: #df5825;
      }
    </style>
  </defs>
  <g id="_图层_1-2" data-name="图层 1">
    <g>
      <path class="cls-1" d="M43.1,57.42h-7.63v14.65h-9.49v-14.65h-9.6v-19.53c-7.28-1.08-13.12-6.62-14.74-13.6C-.11,16.76,3.05,9.04,9.59,4.95c5.25-3.29,11.87-3.67,17.61-.77,4.88,2.46,8.65,7.36,9.54,13.06l2.06.03C39.21,6.33,49.3-1.79,60.12.34c6.46,1.28,11.83,6.15,13.74,12.47,2.92,9.68-2.77,19.81-12.52,22.45v22.15h-10.8s1.59,13.64,1.59,13.64l-7.34.86-1.69-14.49h0Z"/>
      <path class="cls-2" d="M5.58,39.81c3.64-.55,6.94,2,7.46,5.54s-1.98,6.93-5.61,7.44c-3.5.48-6.81-1.96-7.35-5.5-.54-3.52,1.84-6.92,5.51-7.48Z"/>
      <rect class="cls-1" x="64.73" y="37.32" width="6.79" height="15.87"/>
    </g>
    <g>
      <polygon class="cls-1" points="279.69 26.36 279.69 26.72 261.4 79.01 249.22 79 254.71 63.94 241.37 26.35 253.3 26.35 260.94 50.37 268.09 26.35 279.69 26.36"/>
      <path class="cls-1" d="M116.67,54.48c3.91,2.38,8.52,2.35,12.53.38,2.71-1.33,4.95-3.16,7.08-5.31l1.23-.03v11.93c-6.99,3.9-13.62,5.28-21.6,3.98-9.44-1.67-15.78-8.73-17.59-18.05-1.03-5.34-1.04-10.77.05-16.09,1.86-9.01,8.42-16.37,17.64-18.02,5.11-.82,10.27-.56,15.21,1.01,2.22.71,4.15,1.71,6.28,2.77v12.04c-.63.49-1.39.06-1.92-.45-1.87-1.77-3.79-3.24-6.04-4.48-3.72-2.05-8.1-2.45-11.95-.51-2.89,1.45-4.81,4-6.01,6.97-1.98,4.93-2.08,12.63-.06,17.47,1.08,2.61,2.64,4.88,5.15,6.4h0Z"/>
      <path class="cls-1" d="M233.15,55.78c1.77-.75,3.37-1.83,4.85-2.84.26-.18.95-.15,1.33-.09v9.83c-5.08,2.54-10.73,3.56-16.45,3.17-2.99-.2-5.76-.68-8.51-1.84-4.87-2.05-8.36-6.08-9.72-11.24-1.14-4.33-1.12-8.83-.21-13.22,1.4-6.69,6.21-12.16,12.95-13.73,3.82-.89,7.72-.93,11.52.01,4.27,1.06,7.53,3.89,9.27,7.89,1.04,2.43,1.69,4.94,1.72,7.61l.08,6.56h-24.8c.06,3.87,1.96,7.28,5.67,8.51,4.01,1.33,8.29,1.06,12.28-.63h0ZM228.82,40.65c-.06-1.66-.3-2.9-.74-4.22-.54-1.13-1.21-2.03-2.27-2.76-2.5-1.13-5.57-1.15-7.81.57-1.97,1.51-2.77,3.97-2.84,6.42h13.66Z"/>
      <path class="cls-1" d="M182.31,35.33c-2.62-.27-4.94.66-6.97,2.31v27.23h-11.33V26.36h11.32l.04,4.16c2.09-1.65,3.88-3.2,6.29-4.22,3.16-1.33,6.83-1.37,10,.02,4.81,2.11,6.33,7.7,6.43,12.84v25.72h-11.42v-21.35s-.56-4.96-.56-4.96c-.21-1.91-1.84-3.03-3.79-3.23h0Z"/>
      <polygon class="cls-1" points="155.33 64.85 144 64.87 144 26.36 155.33 26.35 155.33 64.85"/>
      <polygon class="cls-1" points="155.66 20.89 143.68 20.89 143.67 11.52 155.65 11.51 155.66 20.89"/>
    </g>
  </g>
</svg>